<?xml version="1.0" encoding="UTF-8" standalone="no"?>
<!-- Created with Inkscape (https://www.inkscape.org/) -->

<svg
   xmlns:dc="https://purl.org/dc/elements/1.1/"
   xmlns:cc="https://creativecommons.org/ns#"
   xmlns:rdf="https://www.w3.org/1999/02/22-rdf-syntax-ns#"
   xmlns:svg="https://www.w3.org/2000/svg"
   xmlns="https://www.w3.org/2000/svg"
   version="1.1"
   width="300.00003"
   height="300.00006"
   id="svg4644">
  <defs
     id="defs4646" />
  <metadata
     id="metadata4649">
    <rdf:RDF>
      <cc:Work
         rdf:about="">
        <dc:format>image/svg+xml</dc:format>
        <dc:type
           rdf:resource="https://purl.org/dc/dcmitype/StillImage" />
        <dc:title></dc:title>
      </cc:Work>
    </rdf:RDF>
  </metadata>
  <path
     d="m 142.60384,299.82853 c -29.47173,-1.40075 -58.837373,-11.9912 -82.538173,-29.76661 -10.74686,-8.06006 -22.00168,-19.30928 -30.22753,-30.21248 -3.136,-4.15671 -8.15282,-11.8546 -10.73548,-16.47276 -2.48915,-4.4509 -5.70859,-10.90115 -5.70859,-11.4373 0,-0.20084 0.91168,-0.98879 2.02594,-1.751 1.11427,-0.76222 2.985,-2.18564 4.15717,-3.16316 1.17219,-0.97752 3.26566,-2.55498 4.65215,-3.50546 2.76641,-1.89645 4.70855,-3.50324 8.81373,-7.29191 1.49124,-1.37627 3.3102,-2.76651 4.04212,-3.08942 0.87178,-0.38461 2.42449,-1.70706 4.50208,-3.8344 1.74423,-1.78601 4.25183,-4.03209 5.57244,-4.99127 1.32061,-0.95919 4.22445,-3.46272 6.45298,-5.5634 2.22854,-2.10068 5.13238,-4.69236 6.45299,-5.75927 1.32061,-1.06691 3.39859,-2.83778 4.61776,-3.93525 1.65568,-1.4904 2.5088,-2.04212 3.37092,-2.17997 0.63482,-0.10152 1.30281,-0.36362 1.48442,-0.58246 0.18162,-0.21883 0.66895,-2.2617 1.08296,-4.53969 0.41399,-2.27799 0.90949,-4.29736 1.10109,-4.48749 0.52804,-0.52393 5.08763,-1.60523 6.76889,-1.60523 2.78919,0 2.85789,0.17959 1.63182,4.26506 l -0.80182,2.6717 0.77571,0.77571 c 0.43547,0.43548 0.96876,0.70163 1.21586,0.60681 0.70752,-0.2715 1.44313,-2.79808 1.08722,-3.73421 -0.35113,-0.92357 -0.11675,-2.2191 0.6658,-3.6802 0.30816,-0.57533 0.56027,-1.21376 0.56027,-1.41875 0,-0.54476 1.14431,-1.20733 3.48575,-2.01825 1.13675,-0.39371 3.14732,-1.1218 4.46793,-1.61798 1.32061,-0.49618 2.87383,-1.0697 3.45159,-1.27448 0.57777,-0.20478 3.78691,-1.63422 7.131413,-3.17654 3.3445,-1.54232 6.2651,-2.80421 6.49021,-2.80421 0.52745,0 3.11111,1.44106 3.40642,1.89995 0.35285,0.54833 0.95237,2.96224 0.96704,3.89368 0.007,0.46272 -0.32441,1.33822 -0.7371,1.94555 -0.41269,0.60733 -0.75035,1.31166 -0.75035,1.56518 0,0.25351 -0.37142,0.99877 -0.82538,1.65613 -0.69144,1.00124 -0.81966,1.48745 -0.7901,2.99605 0.0194,0.99046 0.133,2.2191 0.25242,2.7303 0.21275,0.91068 -0.46927,2.57577 -3.18446,7.77462 -0.34486,0.66031 -1.67506,3.22651 -2.95601,5.70267 -1.28095,2.47616 -3.85154,7.00078 -5.712423,10.05471 -7.05931,11.58513 -8.35582,13.92906 -17.90162,32.36372 -6.05338,11.69021 -7.23026,14.39515 -6.46808,14.8662 0.40398,0.24968 0.58143,0.003 2.99496,-4.15975 4.08762,-7.05054 8.34551,-14.81943 12.83082,-23.41096 2.01066,-3.85135 5.7655,-10.43252 8.39092,-14.70689 1.01395,-1.65078 2.029023,-3.45729 2.255733,-4.01447 0.22671,-0.55718 0.9821,-1.78722 1.67865,-2.73342 0.69654,-0.9462 1.59561,-2.3812 1.99792,-3.18891 0.81308,-1.63239 2.2143,-4.12664 6.55783,-11.67333 1.61519,-2.80631 3.17401,-5.60887 3.46405,-6.22791 0.52389,-1.11818 1.21108,-1.46862 1.47138,-0.75035 0.0748,0.20634 0.28169,1.59074 0.45981,3.07644 0.17812,1.48569 0.43195,3.57917 0.56407,4.65218 0.16808,1.36513 0.7442,3.05936 1.91875,5.64256 2.02314,4.44953 3.89815,7.34472 6.11817,9.44702 0.91082,0.86252 2.07999,2.03855 2.59816,2.61341 2.6326,2.92058 4.37066,4.0155 7.78703,4.90559 1.54827,0.40338 1.70076,0.40367 1.3679,0.003 -0.20605,-0.24827 -1.32784,-0.93084 -2.49288,-1.51682 -3.43478,-1.72762 -5.1424,-2.94509 -8.02143,-5.719 -2.83871,-2.73519 -5.65216,-6.16031 -5.65216,-6.88112 0,-0.2312 -0.20826,-0.82308 -0.46279,-1.31529 -0.51677,-0.99934 -1.67516,-4.66285 -2.55471,-8.07948 -0.4437,-1.72361 -0.58003,-3.28727 -0.58183,-6.67349 l -0.002,-4.42244 2.42679,-4.80761 c 1.83845,-3.64206 2.58429,-4.84111 3.07643,-4.94578 0.35729,-0.076 1.57804,-0.27191 2.71276,-0.43538 3.70359,-0.53356 7.20821,-3.282 8.12863,-6.37476 0.41058,-1.37962 0.42774,-2.01532 0.12255,-4.54021 -0.32311,-2.67322 -0.4579,-3.07406 -1.50602,-4.47887 -0.63314,-0.8486 -1.89481,-2.20572 -2.80372,-3.01582 -1.73883,-1.5498 -1.99247,-2.22609 -1.12732,-3.00577 0.86194,-0.77677 2.02574,-0.90358 4.74718,-0.51727 2.34217,0.33247 2.67176,0.31613 3.58925,-0.17797 0.88278,-0.47542 1.10704,-0.49227 1.77734,-0.13353 0.42189,0.22579 1.01629,0.82656 1.32088,1.33505 0.41167,0.68725 1.21425,1.21338 3.12726,2.05005 4.1994,1.83665 5.8748,1.50524 11.375,-2.25006 1.58068,-1.07922 3.28529,-2.05257 3.78802,-2.16299 0.94651,-0.20789 3.23357,0.26381 3.89063,0.80243 0.68734,0.56344 0.47811,2.64746 -1.01795,10.13868 -0.24725,1.23808 -0.78093,4.00688 -1.18594,6.15288 -1.56236,8.27825 -4.59559,19.36445 -7.80138,28.51336 -3.47593,9.91983 -3.79913,11.3751 -2.82025,12.6991 0.73274,0.9911 0.6938,1.55005 -0.4947,7.09975 -0.24624,1.14981 -0.41963,2.56798 -0.38532,3.15148 0.07,1.1895 -0.0758,2.4053 -0.93642,7.81408 -1.01124,6.35496 -1.80636,12.36273 -1.90672,14.40674 -0.0527,1.07301 -0.39917,2.8034 -0.76997,3.84532 -0.63123,1.77372 -0.64229,1.92962 -0.17368,2.44743 0.42873,0.47374 0.45551,0.79636 0.18681,2.2499 -0.17253,0.93328 -0.3882,1.81745 -0.47929,1.96483 -0.23333,0.37754 -1.01276,6.52542 -1.50273,11.853 -0.95137,10.34464 -1.39488,12.78665 -3.49967,19.26971 -1.23866,3.81524 -1.39331,5.56239 -0.50721,5.73006 0.37117,0.0702 0.58232,-0.29675 0.86202,-1.49824 0.20375,-0.8752 0.60942,-1.99646 0.90149,-2.49169 0.61303,-1.03944 1.98929,-5.41048 2.5988,-8.25387 0.23001,-1.073 0.61282,-4.31452 0.8507,-7.20337 0.23787,-2.88885 0.57217,-5.99531 0.74287,-6.90323 0.1707,-0.90793 0.37627,-2.79882 0.45683,-4.20197 0.35363,-6.15932 0.79029,-9.44642 1.33566,-10.05471 0.42588,-0.47502 0.57876,-1.35188 0.73261,-4.20197 0.18213,-3.37405 0.37274,-4.96324 1.54472,-12.87943 0.25444,-1.71866 0.58529,-4.92642 0.73521,-7.12833 0.14992,-2.20192 0.41271,-4.40868 0.58397,-4.90391 0.17125,-0.49523 0.50782,-2.70095 0.74793,-4.90161 0.36982,-3.38947 0.59749,-4.35309 1.48913,-6.30295 0.57892,-1.26597 1.13448,-3.04461 1.2346,-3.95254 0.19922,-1.80674 2.12608,-10.04412 3.30647,-14.13531 0.4094,-1.41894 0.74402,-2.76958 0.74361,-3.0014 -3e-4,-0.23184 0.59309,-2.58252 1.3189,-5.22376 3.18188,-11.57894 5.2517,-20.76232 5.88536,-26.11223 0.19552,-1.65078 0.49793,-3.17425 0.67202,-3.38551 0.19882,-0.24126 0.99773,-0.37485 2.14825,-0.35921 2.28105,0.031 12.57801,-0.50898 17.589,-0.92237 6.00828,-0.49567 19.84456,-0.75794 25.0616,-0.47504 6.5587,0.35564 8.86625,0.37688 9.7864,0.0901 1.11756,-0.34834 1.5241,0.19026 2.60571,3.45212 0.5109,1.54076 1.82887,4.69206 2.92883,7.00291 1.09995,2.31084 2.78342,6.02488 3.74105,8.25342 3.20207,7.45173 4.72193,10.75416 5.36483,11.65705 0.35081,0.49267 1.15763,2.02198 1.79292,3.39847 0.63529,1.37649 2.37614,5.00138 3.86856,8.05531 6.10035,12.48315 8.28385,17.1021 9.40603,19.89734 1.36602,3.40262 3.13955,7.03571 3.8002,7.78476 0.25195,0.28566 0.88151,0.59881 1.39904,0.6959 0.72548,0.1361 2.17656,1.45631 6.33675,5.76526 2.96768,3.0738 9.08633,9.24955 13.597,13.72389 l 8.20121,8.13515 -1.79091,3.15459 c -9.35985,16.48686 -22.05483,31.37687 -36.90066,43.28097 -28.49601,22.84947 -64.38331,34.47001 -101.06794,32.72645 z m 138.81424,-82.96152 c -0.90792,-0.65754 -6.10783,-5.68592 -11.55535,-11.17419 -5.44752,-5.48827 -10.7965,-10.68572 -11.88661,-11.54988 -1.9396,-1.53758 -1.98871,-1.61153 -2.29412,-3.45461 -0.20917,-1.26232 -0.67938,-2.47387 -1.42586,-3.67394 -3.14181,-5.05087 -4.65864,-7.80622 -7.9253,-14.39645 -1.96382,-3.96185 -3.66674,-7.54103 -3.78426,-7.95372 -0.11752,-0.41269 -0.60997,-1.40403 -1.09434,-2.20298 -0.48437,-0.79894 -1.29121,-2.48723 -1.79299,-3.75175 -0.50177,-1.26453 -1.50045,-3.44718 -2.21928,-4.85033 -0.71883,-1.40316 -1.72873,-3.6317 -2.24421,-4.95232 -0.51549,-1.32062 -1.72608,-4.02651 -2.6902,-6.0131 -0.96412,-1.98658 -1.9142,-4.21082 -2.11129,-4.94275 -0.19708,-0.73194 -0.79561,-2.21301 -1.33006,-3.29127 -0.53445,-1.07826 -1.42194,-3.10851 -1.97219,-4.51167 -1.31916,-3.36385 -2.54664,-5.18405 -5.95444,-8.82969 -2.76661,-2.95969 -2.87809,-3.04063 -5.09783,-3.70118 -2.25078,-0.66978 -2.42735,-0.67531 -21.56101,-0.67531 -16.14975,0 -19.81861,0.0783 -22.52723,0.48094 -3.88892,0.57805 -5.84392,0.45224 -6.79045,-0.43697 -0.95397,-0.89622 -4.06334,-2.44495 -4.26232,-2.12299 -0.32766,0.53017 -3.78778,2.37916 -4.45227,2.37916 -0.84352,0 -2.1262,-1.30568 -1.88927,-1.92313 0.26804,-0.69849 3.38316,-1.46892 6.13005,-1.51608 1.41275,-0.0242 2.62482,-0.19114 2.82227,-0.38859 0.25552,-0.25552 0.5085,-0.25915 0.96684,-0.0139 0.93519,0.5005 2.39065,0.34465 5.87962,-0.62957 4.53985,-1.26765 6.76174,-1.78467 9.29052,-2.16184 2.37663,-0.35448 5.43743,-1.20718 9.41926,-2.62408 2.69806,-0.96009 6.15511,-2.03134 7.56308,-2.34361 0.49523,-0.10983 1.20126,-0.39446 1.56896,-0.63251 0.36769,-0.23805 1.11054,-0.54481 1.65076,-0.6817 1.74242,-0.4415 7.54896,-2.57779 8.78584,-3.2324 0.6603,-0.34946 1.99322,-0.84042 2.96205,-1.09103 0.96882,-0.250613 1.91425,-0.575953 2.10097,-0.722973 0.18671,-0.14703 1.28492,-0.57721 2.44045,-0.95597 1.15554,-0.37876 3.57774,-1.27056 5.38267,-1.9818 3.73079,-1.470111 3.39767,-1.544071 5.52337,1.22629 0.76574,0.99796 3.28479,3.956113 5.5979,6.573673 2.3131,2.61756 4.99457,5.72401 5.95882,6.90323 0.96424,1.17922 3.68721,4.10245 6.05104,6.49607 2.36383,2.39363 5.4045,5.63514 6.75703,7.20338 5.35243,6.20602 5.47707,6.30295 8.10466,6.30295 1.76075,0 2.76974,0.41194 3.15834,1.28945 0.33001,0.74522 1.95391,1.73042 4.33971,2.63286 0.90792,0.34343 2.25855,0.99553 3.00139,1.44913 1.39592,0.85237 7.96324,3.89953 14.2566,6.6149 1.98091,0.8547 5.37168,2.42425 7.53503,3.4879 3.84429,1.89011 4.77687,2.13098 6.42142,1.65851 0.41269,-0.11856 1.00146,-0.15302 1.30837,-0.0766 0.52785,0.13148 0.54691,0.43271 0.35277,5.57299 -0.84555,22.38643 -5.17258,40.71259 -14.19852,60.13461 -1.0932,2.35235 -2.12984,4.27099 -2.30363,4.26365 -0.1738,-0.007 -1.05884,-0.55134 -1.96676,-1.20888 z M 12.096117,209.17024 c -0.52638,-0.85169 -3.4023107,-8.56259 -4.8053707,-12.8841 -8.99399,-27.70172 -9.68632,-57.99716 -1.96759,-86.09744 C 14.847017,75.516866 36.721347,45.251446 66.765037,25.177456 102.07699,1.5833962 145.82084,-5.8586937 187.25655,4.6783562 c 38.62661,9.8226898 71.99141,35.0432598 92.33141,69.7936098 5.09433,8.70353 9.80902,19.22047 12.91931,28.818754 4.39557,13.56464 6.44505,24.98623 7.36401,41.03897 0.19788,3.45654 0.27063,3.40968 -2.91605,1.87828 -1.19954,-0.57646 -4.13938,-1.8028 -6.53299,-2.72521 -2.3936,-0.92241 -4.89226,-1.98417 -5.55257,-2.35946 -0.6603,-0.3753 -2.17717,-1.05067 -3.37082,-1.50082 -2.44734,-0.92293 -16.87906,-8.13553 -19.05965,-9.5255 -0.78142,-0.4981 -1.91166,-1.57437 -2.51164,-2.39173 -0.59999,-0.81735 -2.18918,-2.31556 -3.53154,-3.32935 -3.45807,-2.61165 -6.58129,-5.62318 -11.91194,-11.48593 -4.73433,-5.20691 -6.7522,-7.53652 -10.16462,-11.7349 -2.83104,-3.483103 -6.8674,-7.362564 -9.02237,-8.671634 -2.39505,-1.45493 -3.4221,-1.45485 -7.20832,6e-4 -1.56822,0.6028 -3.32403,1.24541 -3.9018,1.42801 -0.57777,0.1826 -1.38814,0.5598 -1.80084,0.83822 -1.26534,0.853651 -4.81221,2.549581 -7.65354,3.659521 -11.62658,4.541843 -12.14164,4.700203 -26.11208,8.028153 -4.29199,1.02241 -10.09696,2.44862 -12.89994,3.16937 -5.63562,1.4491 -5.41828,1.46121 -7.43447,-0.41396 -0.98383,-0.91502 -0.99633,-1.13568 -0.20693,-3.65439 0.33588,-1.07171 0.53387,-2.25467 0.43996,-2.62882 -0.0939,-0.37415 0.0347,-1.07758 0.28584,-1.56319 0.25112,-0.48561 0.45658,-1.2273 0.45658,-1.648193 0,-1.07035 0.79165,-0.98833 2.02877,0.21021 0.97207,0.941763 1.08557,0.973343 3.28583,0.914363 1.26433,-0.0339 2.93365,-0.29651 3.74944,-0.58986 1.46666,-0.527413 1.47644,-0.526663 3.78172,0.28913 1.27119,0.44985 2.58771,0.81659 2.92561,0.81497 0.33789,-0.002 1.55345,-0.62299 2.70125,-1.380823 2.5616,-1.6913 4.69696,-2.77551 7.63947,-3.87886 3.95276,-1.482151 7.2893,-4.120851 10.81086,-8.549721 0.72192,-0.90793 2.21885,-2.67137 3.32649,-3.91877 1.52635,-1.71892 2.45821,-3.18183 3.84912,-6.0427 1.00937,-2.0761 2.3445,-4.36455 2.96696,-5.08546 1.11488,-1.2912 2.24903,-3.86169 3.19003,-7.23005 0.32566,-1.16571 0.94256,-2.27441 1.92055,-3.45162 3.70498,-4.45971 3.97371,-5.28478 2.48558,-7.63134 -1.00812,-1.58965 -2.67311,-2.71654 -4.35156,-2.94522 -0.6537,-0.0891 -1.23854,-0.31268 -1.29964,-0.49694 -0.0611,-0.18426 0.53569,-1.12978 1.3262,-2.10115 2.48468,-3.05318 4.57542,-6.03639 4.97458,-7.09809 0.1096,-0.29152 -0.15784,-1.96153 -0.5943,-3.71113 -0.69773,-2.79686 -0.9791,-3.42163 -2.32954,-5.17263 -1.49365,-1.93667 -1.59356,-2.00535 -3.6259,-2.4927 -2.91456,-0.69889 -5.70812,-1.06205 -6.35016,-0.82549 -0.29809,0.10982 -2.06117,0.34834 -3.91796,0.53004 -1.85679,0.18171 -3.74766,0.52125 -4.20194,0.75453 -0.45429,0.23329 -1.70388,0.66006 -2.77687,0.94836 -2.12625,0.57131 -6.98797,2.73766 -8.39951,3.74277 -0.48635,0.34632 -1.59797,0.83932 -2.47027,1.09558 -0.87229,0.25625 -2.2613,0.97212 -3.08668,1.59081 -0.82538,0.61869 -2.44613,1.517 -3.60167,1.99623 -2.30927,0.95773 -11.69504,6.03831 -17.51809,9.48268 -2.04143,1.20752 -4.7003,2.73574 -5.90859,3.39605 -1.20829,0.66031 -3.58267,2.04471 -5.2764,3.07644 -1.69373,1.03173 -3.37268,1.87588 -3.731,1.87588 -0.42498,0 -0.92129,0.40769 -1.42747,1.17258 -0.50628,0.76505 -1.1546,1.29754 -1.8654,1.53212 -0.59919,0.19775 -1.65234,0.68144 -2.34034,1.07486 -0.688,0.39342 -1.74272,0.71694 -2.34384,0.71893 -0.9935,0.003 -1.136,-0.10403 -1.56639,-1.1797 -0.26041,-0.65082 -0.60883,-2.03522 -0.77427,-3.07644 -0.34501,-2.17138 -1.40495,-3.48639 -2.38665,-2.96099 -1.0086,0.53979 -1.36705,1.29627 -1.55419,3.28001 -0.10325,1.0944 -0.57215,2.93527 -1.04201,4.09081 -0.46986,1.15554 -1.13196,3.36951 -1.47135,4.91994 -0.71854,3.28254 -1.21594,3.86283 -2.37651,2.77253 -0.76277,-0.71659 -2.35863,-3.52977 -2.74628,-4.84114 -0.122,-0.41269 -0.81331,-2.14238 -1.53626,-3.84376 -0.72295,-1.70138 -1.60342,-3.99745 -1.95661,-5.10239 -0.63738,-1.99406 -3.27505,-8.1774 -5.21269,-12.21988 -0.55549,-1.15891 -1.35384,-2.43015 -1.77411,-2.82497 -0.70523,-0.66253 -0.85614,-0.6903 -1.95771,-0.36026 -1.28465,0.38489 -2.1119,1.27098 -1.94678,2.08524 0.0564,0.27821 0.30091,1.38374 0.54332,2.45674 0.24241,1.07301 0.52773,3.16649 0.63404,4.65218 0.18657,2.60723 0.52318,5.4389 1.51635,12.75598 0.87167,6.42195 1.94665,14.24647 2.22669,16.20759 0.15322,1.073 0.44096,3.71651 0.63942,5.87445 0.52333,5.6904 0.13565,7.00927 -2.07349,7.0539 -1.16757,0.0236 -1.26651,0.0382 -4.96401,0.73419 -1.29758,0.24424 -3.02633,0.44407 -3.841663,0.44407 -0.81535,0 -1.8892,0.21034 -2.38635,0.46742 -0.49714,0.25709 -2.14462,0.60596 -3.66105,0.77526 -2.7246,0.3042 -3.78775,0.699601 -3.27085,1.216481 0.37529,0.37532 3.31952,0.33589 4.56409,-0.0611 0.57776,-0.1843 2.06345,-0.45063 3.30152,-0.591851 1.23808,-0.14121 2.993883,-0.47674 3.901803,-0.74561 0.90792,-0.26887 2.39361,-0.49135 3.30153,-0.49439 0.90792,-0.003 2.28776,-0.22426 3.06632,-0.49159 1.33228,-0.45747 1.45064,-0.4543 2.012,0.0537 0.32804,0.29688 0.73774,1.2336 0.91045,2.081611 0.45001,2.20962 1.19891,11.866953 1.0091,13.012723 -0.088,0.53127 -0.0255,1.35189 0.13894,1.82358 0.35209,1.01001 -0.0102,1.86263 -0.79137,1.86263 -1.23558,0 -8.32172,-3.04008 -9.79704,-4.20312 -0.16508,-0.13013 -1.44817,-0.65023 -2.851313,-1.15577 -1.40315,-0.50555 -4.1044,-1.55026 -6.00277,-2.32159 -3.92036,-1.59287 -7.1265,-2.51162 -8.79104,-2.51915 -2.75323,-0.0125 -5.53849,2.85483 -6.91856,7.12235 -0.79552,2.45993 -2.11991,8.01297 -2.45193,10.28066 -0.10877,0.74285 -0.38522,2.0987 -0.61432,3.013 -0.22913,0.91431 -0.76514,3.8857 -1.19113,6.6031 -0.42599,2.71739 -1.0386,6.62901 -1.3614,8.69247 -1.28646,8.22381 -2.93263,16.50216 -3.52102,17.70667 -0.47782,0.9782 -0.65391,1.07384 -2.61331,1.41949 -2.36173,0.41662 -7.33482,1.15538 -9.60444,1.42676 -3.71629,0.44436 -10.59572,2.30964 -9.23261,2.50331 0.70986,0.10086 4.70606,-0.63532 6.98157,-1.28613 2.82802,-0.80885 4.18396,-1.02837 8.50542,-1.377 5.46793,-0.44113 5.62382,-0.37255 4.90796,2.15915 -0.25022,0.88499 -0.54799,2.48698 -0.66168,3.55998 -0.2433,2.29612 -0.55337,2.69919 -4.34782,5.6518 -2.67498,2.08149 -5.67358,4.68355 -9.74328,8.45481 -2.5342,2.34835 -5.90293,5.18848 -10.68012,9.00422 -1.55003,1.23808 -4.24537,3.61138 -5.98966,5.274 -1.74425,1.66261 -4.3419,3.8018 -5.77251,4.75375 -1.43061,0.95196 -2.75933,1.92147 -2.95271,2.15449 -0.19337,0.23294 -0.55207,0.42359 -0.79704,0.42359 -0.24501,0 -1.41027,0.92961 -2.58948,2.06581 -3.03393,2.92326 -10.73174,8.21254 -11.09551,7.6239 z m 59.72422,-54.0308 c -0.1824,-0.29512 1.18945,-14.06256 1.44196,-14.47115 0.0718,-0.11611 0.34315,-1.61899 0.60304,-3.33973 0.25992,-1.72074 0.79881,-4.74937 1.19761,-6.7303 0.73039,-3.62828 3.03413,-15.5279 3.92221,-20.25949 0.63738,-3.39606 0.75719,-3.50041 3.34013,-2.90917 1.1284,0.25829 2.65941,0.54002 3.40225,0.62608 0.74285,0.0861 2.90385,0.85354 4.80223,1.70554 1.89837,0.85199 6.15284,2.62692 9.454355,3.94428 6.939218,2.76886 7.653538,3.14047 7.653538,3.98155 0,0.33867 -0.58025,1.28875 -1.28945,2.11131 -0.7092,0.82255 -2.44876,2.98124 -3.86569,4.79709 -1.41693,1.81585 -4.166183,5.1249 -6.109463,7.35344 -1.94328,2.22855 -3.72864,4.52462 -3.96749,5.10239 -0.23882,0.57778 -1.61973,2.19853 -3.06868,3.60169 -2.80383,2.71522 -5.47264,5.84032 -5.21101,6.10195 0.40135,0.40136 -0.37844,2.20974 -1.4578,3.38072 -0.88127,0.95608 -1.1417,1.45236 -0.99862,1.90315 0.32259,1.01637 -0.96261,1.98555 -3.35433,2.52954 -2.84954,0.64812 -6.26173,0.94816 -6.49479,0.57111 z m 13.61763,-3.36154 c -0.67378,-1.25897 -0.35762,-2.2873 1.34006,-4.35844 0.90792,-1.10765 1.65076,-2.12567 1.65076,-2.26227 0,-0.13659 0.54764,-0.94117 1.21698,-1.78797 0.66937,-0.84679 1.66973,-2.31085 2.22304,-3.25346 0.55333,-0.94261 1.64831,-2.38916 2.43331,-3.21455 0.785,-0.82538 1.77706,-2.04095 2.20458,-2.70126 1.06544,-1.64561 5.170073,-6.97661 7.492963,-9.73168 1.053,-1.24892 2.43707,-3.04021 3.0757,-3.98064 1.30822,-1.92644 2.17574,-2.64534 3.19222,-2.64534 0.87903,0 2.7485,0.94411 3.48746,1.76121 0.51354,0.56786 0.52361,0.68651 0.11087,1.30754 -0.24965,0.37565 -1.24666,1.14551 -2.21556,1.7108 -2.18757,1.27629 -4.75201,3.68806 -5.60907,5.27516 -0.51797,0.95917 -0.6439,1.68333 -0.62634,3.60168 0.0243,2.6569 0.59979,4.43144 2.39738,7.39271 0.64737,1.06646 1.0259,2.07534 1.0259,2.73429 l 0,1.04426 -6.17884,2.89334 c -3.398363,1.59134 -6.306693,2.89335 -6.462963,2.89335 -0.15626,0 -0.92117,0.32221 -1.6998,0.71602 -1.68267,0.85106 -7.81088,3.1858 -8.36209,3.1858 -0.21223,0 -0.52569,-0.26124 -0.69656,-0.58055 z m 61.307053,-28.60812 c -0.44707,-0.58989 -0.98972,-2.74012 -0.98972,-3.92173 0,-1.43246 0.58993,-1.73783 2.36646,-1.22499 0.7619,0.21994 1.74028,0.47029 2.17416,0.55633 0.64503,0.12791 0.85274,0.41 1.13903,1.54699 0.30762,1.22167 0.28471,1.46405 -0.18861,1.99578 -1.09107,1.22571 -3.87526,1.87369 -4.50132,1.04762 z M 112.47057,89.103826 c -0.30292,-1.1653 -1.36401,-11.39097 -1.67402,-16.13256 -0.0971,-1.4857 -0.46358,-5.44217 -0.81431,-8.79217 -0.49119,-4.6917 -0.55605,-6.17254 -0.28231,-6.44628 0.6966,-0.6966 1.3878,0.27583 2.95505,4.15735 0.86114,2.13275 1.69987,4.14785 1.86383,4.47801 1.79197,3.60832 3.62372,7.88476 3.62372,8.46001 0,0.395 0.27845,1.264 0.61878,1.93111 0.44543,0.87313 0.5607,1.47939 0.41145,2.16406 -0.33352,1.53 -1.56211,4.09521 -2.05127,4.28292 -0.2731,0.1048 -0.64919,1.06588 -0.95501,2.44051 -0.39166,1.76046 -0.73838,2.52651 -1.55019,3.4251 -0.57514,0.6366 -1.22737,1.15746 -1.44941,1.15746 -0.22205,0 -0.53538,-0.50648 -0.69631,-1.12552 z"
     id="path3816"
     style="fill:#93c44c;fill-opacity:1" />
</svg>
